<?xml version="1.0" encoding="UTF-8"?>
<svg id="_图层_2" data-name="图层 2" xmlns="http://www.w3.org/2000/svg" viewBox="0 0 165.09 258">
  <defs>
    <style>
      .cls-1 {
        fill: #3395ff;
        stroke-width: 0px;
      }
    </style>
  </defs>
  <g id="_图层_1-2" data-name="图层 1">
    <g id="shape">
      <path class="cls-1" d="M0,34.44L57.13,1.22s16.02-5.75,40.52,7.66c24.25,13.27,56.14,37.85,67.43,92.99l-54.47,31.89S86.03,24.81,0,34.44Z"/>
      <path class="cls-1" d="M135.27,126.78s30.23,39.53,13.95,85.03c-16.31,45.59-58.72,45.85-70.09,46.17-11.63.33-37.86-5.31-68.08-28.89.74.41,36.68,19.94,51.8,21.92,15.82,2.07,44.32,1.33,39.53-42.85-4.82-44.51-49.82-76.4-49.82-76.4,0,0-43.57-30.42-40.58-53.42.37-2.88,2.53-5.32,5.4-5.69,5.28-.68,15.91.65,30.19,17.59,20.43,24.23,14.95,33.55,14.95,33.55l39.53,22.92,33.22-19.93Z"/>
      <path class="cls-1" d="M27.13,195.22c-12.77-13.61-18.44-29.03-12.66-34.45,5.77-5.42,20.81,1.22,33.57,14.82,12.77,13.61,18.44,29.03,12.67,34.45-5.78,5.42-20.81-1.22-33.58-14.82Z"/>
    </g>
  </g>
</svg>